#N canvas 1 96 931 688 10;
#X obj 189 160 comport 32 9600;
#X msg 189 55 parity 0;
#X msg 189 76 stopbit 1;
#X obj 375 201 + 1;
#X obj 338 201 f;
#X obj 150 417 int;
#X floatatom 338 247 5 0 0 1 idx - -, f 5;
#X obj 337 174 bng 15 250 50 0 empty empty empty 17 7 0 10 -262144
-1 -1;
#X obj 229 246 tabwrite bytes;
#N canvas 0 50 450 250 (subpatch) 0;
#X array bytes 2 float 3;
#A 0 0 0;
#X coords 0 255 2 0 300 256 1 0 0;
#X restore 441 123 graph;
#X floatatom 229 220 5 0 0 0 - - -, f 5;
#X msg 369 23 \; readout 1 \; bytes xlabel 0 1 \; bytes ylabel 0 16
32 64 128 255 \;;
#X obj 338 223 mod 2;
#X msg 162 6 loadbang;
#X obj 150 360 tabread bytes;
#X floatatom 179 417 5 0 0 0 - - -, f 5;
#X floatatom 408 490 5 0 0 3 ele7 - -, f 5;
#X floatatom 454 490 5 0 0 3 ele6 - -, f 5;
#X floatatom 501 490 5 0 0 3 ele5 - -, f 5;
#X floatatom 547 490 5 0 0 3 ele4 - -, f 5;
#X obj 189 193 t b b f b;
#X obj 408 458 int2bin, f 47;
#X obj 302 417 int;
#X obj 302 360 tabread bytes;
#X floatatom 331 417 5 0 0 0 - - -, f 5;
#X floatatom 594 490 5 0 0 3 ele3 - -, f 5;
#X floatatom 640 490 5 0 0 3 ele2 - -, f 5;
#X floatatom 687 490 5 0 0 3 ele1 - -, f 5;
#X floatatom 734 490 5 0 0 3 ele0 - -, f 5;
#X msg 69 143 close;
#X obj 69 38 tgl 50 0 empty empty Serial_ON/OFF 0 -7 0 10 -260097 -159808
-159808 0 1;
#X obj 69 96 sel 0;
#X msg 101 120 open 32;
#X msg 189 34 bits 8;
#X text 379 458 LSB;
#X floatatom 33 490 5 0 0 3 ele7 - -, f 5;
#X floatatom 79 490 5 0 0 3 ele6 - -, f 5;
#X floatatom 126 490 5 0 0 3 ele5 - -, f 5;
#X floatatom 172 490 5 0 0 3 ele4 - -, f 5;
#X obj 33 458 int2bin, f 47;
#X floatatom 219 490 5 0 0 3 ele3 - -, f 5;
#X floatatom 265 490 5 0 0 3 ele2 - -, f 5;
#X floatatom 312 490 5 0 0 3 ele1 - -, f 5;
#X floatatom 359 490 5 0 0 3 ele0 - -, f 5;
#X msg 150 336 1;
#X msg 302 336 0;
#X connect 0 0 20 0;
#X connect 1 0 0 0;
#X connect 2 0 0 0;
#X connect 3 0 4 1;
#X connect 4 0 3 0;
#X connect 4 0 12 0;
#X connect 5 0 39 0;
#X connect 6 0 8 1;
#X connect 7 0 4 0;
#X connect 10 0 8 0;
#X connect 12 0 6 0;
#X connect 13 0 11 0;
#X connect 13 0 33 0;
#X connect 13 0 1 0;
#X connect 13 0 2 0;
#X connect 14 0 15 0;
#X connect 14 0 5 0;
#X connect 20 0 45 0;
#X connect 20 1 44 0;
#X connect 20 2 10 0;
#X connect 20 3 7 0;
#X connect 21 0 16 0;
#X connect 21 1 17 0;
#X connect 21 2 18 0;
#X connect 21 3 19 0;
#X connect 21 4 25 0;
#X connect 21 5 26 0;
#X connect 21 6 27 0;
#X connect 21 7 28 0;
#X connect 22 0 21 0;
#X connect 23 0 24 0;
#X connect 23 0 22 0;
#X connect 29 0 0 0;
#X connect 30 0 31 0;
#X connect 31 0 29 0;
#X connect 31 1 32 0;
#X connect 32 0 0 0;
#X connect 33 0 0 0;
#X connect 39 0 35 0;
#X connect 39 1 36 0;
#X connect 39 2 37 0;
#X connect 39 3 38 0;
#X connect 39 4 40 0;
#X connect 39 5 41 0;
#X connect 39 6 42 0;
#X connect 39 7 43 0;
#X connect 44 0 14 0;
#X connect 45 0 23 0;
#X coords 0 688 1 687 200 100 0;
