#N canvas 95 182 507 200 10;
#X obj 390 96 mod 2;
#X obj 341 115 div 2;
#X obj 341 95 mod 4;
#X obj 292 95 mod 8;
#X obj 292 115 div 4;
#X obj 242 95 mod 16;
#X obj 242 115 div 8;
#X obj 192 95 mod 32;
#X obj 192 115 div 16;
#X obj 142 95 mod 64;
#X obj 142 115 div 32;
#X obj 92 115 div 64;
#X obj 92 95 mod 128;
#X obj 36 115 div 128;
#X obj 36 95 mod 256;
#X obj 36 48 inlet;
#X obj 36 142 outlet;
#X obj 92 142 outlet;
#X obj 142 142 outlet;
#X obj 192 142 outlet;
#X obj 242 142 outlet;
#X obj 292 142 outlet;
#X obj 341 142 outlet;
#X obj 390 142 outlet;
#X connect 0 0 23 0;
#X connect 1 0 22 0;
#X connect 2 0 1 0;
#X connect 2 0 0 0;
#X connect 3 0 2 0;
#X connect 3 0 4 0;
#X connect 4 0 21 0;
#X connect 5 0 3 0;
#X connect 5 0 6 0;
#X connect 6 0 20 0;
#X connect 7 0 5 0;
#X connect 7 0 8 0;
#X connect 8 0 19 0;
#X connect 9 0 7 0;
#X connect 9 0 10 0;
#X connect 10 0 18 0;
#X connect 11 0 17 0;
#X connect 12 0 9 0;
#X connect 12 0 11 0;
#X connect 13 0 16 0;
#X connect 14 0 12 0;
#X connect 14 0 13 0;
#X connect 15 0 14 0;
